<svg width="157" height="283" viewBox="0 0 157 283" fill="none" xmlns="http://www.w3.org/2000/svg">
<path d="M100.76 0.834854L100.649 63.1004L100.538 125.366L95.4233 110.911V110.874L88.789 249.489C95.3121 267.872 98.796 277.694 98.833 277.731C98.8701 277.768 102.576 277.99 107.061 278.213C120.626 278.88 137.452 280.325 150.239 281.919C153.204 282.29 155.724 282.475 155.91 282.327C156.095 282.179 156.132 218.801 156.095 141.451L155.984 0.834854H100.76Z" fill="#B1060F"/>
<path d="M0.876053 0.649538V141.414C0.876053 218.838 0.950178 282.253 1.06137 282.364C1.17256 282.475 5.95365 281.993 11.7354 281.363C17.5172 280.733 25.4858 279.918 29.4515 279.584C35.5298 279.065 53.7647 277.916 55.8402 277.879C56.4702 277.879 56.5073 274.729 56.5814 218.245L56.6926 158.611L61.1031 171.064C61.7702 172.992 61.9926 173.585 62.6597 175.475L69.294 36.8969C67.8856 32.9312 68.6268 35.0068 67.0331 30.4851C61.622 15.1782 57.0262 2.24323 56.8409 1.65023L56.4702 0.612473H0.876053V0.649538Z" fill="#B1060F"/>
<path d="M100.76 0.834854L100.649 63.1004L100.538 125.366L95.4233 110.911V110.874L88.789 249.489C95.3121 267.872 98.796 277.694 98.833 277.731C98.8701 277.768 102.576 277.99 107.061 278.213C120.626 278.88 137.452 280.325 150.239 281.919C153.204 282.29 155.724 282.475 155.91 282.327C156.095 282.179 156.132 218.801 156.095 141.451L155.984 0.834854H100.76Z" fill="#B1060F"/>
<path d="M0.876053 0.649538V141.414C0.876053 218.838 0.950178 282.253 1.06137 282.364C1.17256 282.475 5.95365 281.993 11.7354 281.363C17.5172 280.733 25.4858 279.918 29.4515 279.584C35.5298 279.065 53.7647 277.916 55.8402 277.879C56.4702 277.879 56.5073 274.729 56.5814 218.245L56.6926 158.611L61.1031 171.064C61.7702 172.992 61.9926 173.585 62.6597 175.475L69.294 36.8969C67.8856 32.9312 68.6268 35.0068 67.0331 30.4851C61.622 15.1782 57.0262 2.24323 56.8409 1.65023L56.4702 0.612473H0.876053V0.649538Z" fill="#B1060F"/>
<path d="M0.876053 0.649538V79.6674L56.5444 227.326C56.5444 223.953 56.5444 222.1 56.5814 218.245L56.6926 158.611L61.1031 171.064C85.5646 240.446 98.7218 277.657 98.796 277.731C98.833 277.768 102.539 277.99 107.024 278.213C120.589 278.88 137.415 280.325 150.202 281.919C153.167 282.29 155.687 282.475 155.873 282.327C155.984 282.216 156.058 251.157 156.058 207.312L100.686 48.0158L100.649 63.1003L100.538 125.366L95.4233 110.911C90.4198 96.7904 87.0841 87.3394 66.959 30.4851C61.5479 15.1782 56.9521 2.24323 56.7668 1.65023L56.3961 0.612473H0.876053V0.649538Z" fill="url(#paint0_radial_3_18)"/>
<path d="M0.876053 0.649538L56.6556 158.722V158.648L61.066 171.101C85.5646 240.446 98.7219 277.657 98.796 277.731C98.833 277.768 102.539 277.99 107.024 278.213C120.589 278.88 137.415 280.325 150.202 281.919C153.13 282.29 155.687 282.475 155.836 282.327L100.538 125.329V125.366L95.4233 110.911C90.4198 96.7904 87.0841 87.3394 66.959 30.4851C61.5479 15.1782 56.9521 2.24323 56.7668 1.65023L56.3961 0.612473H28.6361L0.876053 0.649538Z" fill="#E50914"/>
<defs>
<radialGradient id="paint0_radial_3_18" cx="0" cy="0" r="1" gradientUnits="userSpaceOnUse" gradientTransform="translate(75.869 139.861) rotate(-19.1007) scale(10.2274 374.645)">
<stop/>
<stop offset="1" stop-opacity="0"/>
</radialGradient>
</defs>
</svg>
